<svg width="132" height="60" viewBox="0 0 132 60" xmlns="http://www.w3.org/2000/svg"><path d="M39.844 15.367c.666-.003 1.333-.003 2-.005-.007 2.388.025 4.777-.014 7.166-.017 1.541-.667 3.184-2.08 3.949-1.597.813-3.622.808-5.188-.075-1.332-.78-1.978-2.384-1.944-3.88.007-2.385.002-4.772.005-7.158h1.942c.005 2.066-.005 4.13.002 6.195.034.95.037 1.98.607 2.792.767 1.056 2.377 1.155 3.46.56.977-.59 1.186-1.82 1.206-2.871.014-2.224 0-4.45.004-6.673zm8.666.043c1.683-.5 3.56-.196 5.057.7-.007.698-.007 1.395-.01 2.092-1.257-.937-2.93-1.627-4.49-1.08-.675.201-1.117 1.012-.792 1.667.267.627.993.809 1.568 1.042 1.238.492 2.666.757 3.583 1.803 1.18 1.425.881 3.962-.847 4.828-1.944 1.008-4.374.687-6.239-.361-.002-.719-.002-1.435-.01-2.153 1.404 1.08 3.35 1.72 5.07 1.063.936-.34 1.055-1.796.205-2.301-1.318-.799-2.937-.962-4.201-1.867-1.112-.799-1.44-2.384-.979-3.632.345-.905 1.178-1.534 2.085-1.8zm18.049-.218c2.646 2.427 5.219 4.937 7.816 7.418v-7.246h1.942c0 3.906.005 7.814-.002 11.72-2.649-2.515-5.224-5.105-7.887-7.605.002 2.451-.003 4.9.002 7.35-.629.005-1.255.005-1.881.007.002-3.881-.017-7.763.01-11.644zm14.858.17c2.343 0 4.683.012 7.023-.008.014.59.014 1.18.014 1.77-1.68 0-3.357-.002-5.037.002v2.726c1.498.005 2.993 0 4.491.005v1.758c-1.498.002-2.993 0-4.49 0 0 1.153-.003 2.308.004 3.461 1.675-.007 3.353 0 5.027-.004.003.606.005 1.216.005 1.823h-7.04c.003-3.846-.004-7.688.003-11.533zm12.727.451c1.82-1.053 4.146-.73 5.933.24.034.714.034 1.43.032 2.144-1.297-.971-3.042-1.665-4.634-1.03-.904.321-1.008 1.685-.187 2.156 1.337.767 2.97.923 4.22 1.865 1.68 1.252 1.557 4.284-.363 5.253-1.945 1.02-4.399.718-6.258-.36-.003-.708-.003-1.417-.012-2.126 1.354.968 3.078 1.626 4.748 1.175.616-.156 1.182-.709 1.095-1.389.012-.52-.352-.976-.809-1.19-1.31-.679-2.857-.87-4.046-1.79-1.551-1.2-1.45-3.955.281-4.948zm11.652.039c1.806-1.092 4.17-.799 5.955.2.007.705.007 1.41.012 2.116-1.284-.971-3.037-1.629-4.608-.988-.873.34-.975 1.663-.174 2.143 1.369.797 3.073.923 4.325 1.94 1.078.85 1.294 2.425.877 3.668-.391 1.107-1.505 1.75-2.6 1.988-1.68.347-3.474.036-4.967-.804-.024-.72-.024-1.442-.026-2.163 1.412 1.05 3.337 1.722 5.054 1.059.934-.34 1.077-1.772.235-2.292-1.354-.847-3.063-.968-4.335-1.973-1.496-1.2-1.425-3.882.252-4.894zm-85.614-.488c2.034.12 4.149-.3 6.117.342 2.187.702 2.498 4.122.503 5.234 1.818.753 2.235 3.33.988 4.758-.767.913-2.02 1.155-3.154 1.19-1.485.024-2.968 0-4.454.007 0-3.843-.002-7.688 0-11.53m1.944 1.761a630.13 630.13 0 000 3.03c1.044-.051 2.127.146 3.146-.148 1.231-.357 1.24-2.384.017-2.753-1.031-.262-2.111-.082-3.163-.129m0 4.732a490.833 490.833 0 000 3.274c1.197-.085 2.486.236 3.62-.267 1.124-.548 1.022-2.418-.156-2.838-1.116-.35-2.313-.094-3.464-.17zm36.956-6.494h1.942v11.53h-1.942v-11.53zm-7.957 17.903c1.813-1.149 4.23-.828 6.022.206-.01.694-.01 1.388-.007 2.083-1.31-.96-3.112-1.7-4.69-.964-.779.371-.88 1.53-.18 2.032 1.438.913 3.348.956 4.589 2.204.83.784.968 2.034.754 3.102-.247 1.068-1.18 1.865-2.206 2.168-1.796.553-3.816.255-5.433-.685.005-.71.008-1.422 0-2.133 1.367 1.026 3.224 1.701 4.904 1.1 1.014-.273 1.216-1.831.298-2.34-1.357-.848-3.083-.955-4.33-2.003-1.416-1.197-1.323-3.77.279-4.77zm-23.235-.486h1.939c.005 3.802.002 7.605.002 11.41H27.89c0-3.805-.002-7.608 0-11.41zm7.461-.267c2.583 2.466 5.159 4.942 7.766 7.384.01-2.393.002-4.784.005-7.175.645-.003 1.293-.003 1.941-.003.005 3.892-.004 7.78.005 11.672-2.633-2.498-5.216-5.05-7.828-7.57-.012 2.455 0 4.912-.005 7.368-.629 0-1.255 0-1.881-.002-.003-3.891.002-7.783-.003-11.674zm27.312.267h1.942v11.41h-1.942c0-3.805-.003-7.606 0-11.41zm7.527 0c1.563 0 3.13 0 4.695-.005 1.78-.022 3.617.889 4.486 2.479.934 1.67.995 3.745.412 5.544-.621 1.891-2.47 3.229-4.442 3.355-1.716.087-3.435.012-5.153.036 0-3.804-.003-7.607.002-11.409m2 1.76v7.887c1.391-.051 2.889.213 4.183-.437 1.243-.64 1.813-2.097 1.777-3.437.05-1.355-.427-2.874-1.675-3.569-1.309-.73-2.86-.352-4.285-.444zm11.956-1.76c2.325-.002 4.65 0 6.979 0 0 .588-.003 1.175-.003 1.762-1.68-.004-3.357-.002-5.034 0v2.666c1.495.002 2.993.002 4.49.002v1.7c-1.497 0-2.995-.003-4.49.002v3.515c1.677.005 3.357 0 5.037.002v1.76c-2.328 0-4.654.003-6.98 0V32.781zm12.685-.002c1.576.014 3.151-.015 4.724.01 1.335.033 2.75.803 3.137 2.153.344 1.172.262 2.563-.49 3.565-.464.598-1.21.826-1.909 1.018a412.768 412.768 0 014.061 4.655 65.84 65.84 0 01-2.296.003c-1.301-1.546-2.627-3.07-3.935-4.607-.432.002-.862.002-1.289.002-.005 1.537-.002 3.073-.002 4.61-.668.002-1.335.002-2.003.002 0-3.804-.005-7.607.002-11.411m2.003 1.704a527.13 527.13 0 000 3.393c1.037-.058 2.12.163 3.124-.16 1.24-.497 1.267-2.488.046-3.02-1.01-.386-2.119-.16-3.17-.213z" fill="#185F7D"/></svg>